<svg width="144" height="48" viewBox="0 0 144 48" fill="none" xmlns="http://www.w3.org/2000/svg">
<g clip-path="url(#clip0_11998_265957)">
<path d="M30.8388 22.932C30.8388 19.6451 33.5456 18.119 33.6633 18.0016C32.1334 15.7711 29.7797 15.5364 28.9559 15.419C26.9553 15.1842 25.0722 16.5929 24.0131 16.5929C22.9539 16.5929 21.424 15.419 19.7765 15.419C17.6581 15.419 15.6574 16.7103 14.4806 18.5885C12.2445 22.4625 13.8921 28.332 16.1282 31.5016C17.1874 33.0277 18.4819 34.7885 20.1295 34.7885C21.777 34.6711 22.3655 33.732 24.3661 33.732C26.3668 33.732 26.8375 34.7885 28.6029 34.7885C30.3681 34.7885 31.4273 33.2625 32.4864 31.619C33.781 29.8581 34.2517 28.0972 34.2517 27.9798C34.2517 28.0972 30.8388 26.8059 30.8388 22.932Z" fill="white"/>
<path d="M27.5432 13.4231C28.3671 12.3666 29.0732 10.8405 28.8378 9.31445C27.5432 9.31445 26.0134 10.1362 25.0719 11.3101C24.2481 12.2492 23.542 13.7753 23.7773 15.3014C25.1896 15.3014 26.7195 14.4797 27.5432 13.4231Z" fill="white"/>
<path d="M51.4334 30.9158H45.9022L44.6076 34.9071H42.2539L47.5498 20.3506H49.9035L55.1993 34.9071H52.8457L51.4334 30.9158ZM46.4906 29.1549H50.9627L48.7266 22.6984H48.609L46.4906 29.1549Z" fill="white"/>
<path d="M66.6146 29.6242C66.6146 32.9111 64.8494 35.0242 62.1426 35.0242C60.6126 35.0242 59.4358 34.3198 58.8474 33.1459V38.4285H56.6113V24.3415H58.7297V26.1024C59.3181 24.9285 60.6126 24.2241 62.1426 24.2241C64.7316 24.1068 66.6146 26.3372 66.6146 29.6242ZM64.2609 29.6242C64.2609 27.5111 63.2017 26.1024 61.4365 26.1024C59.7889 26.1024 58.612 27.5111 58.612 29.6242C58.612 31.7372 59.7889 33.1459 61.4365 33.1459C63.2017 33.1459 64.2609 31.7372 64.2609 29.6242Z" fill="white"/>
<path d="M78.266 29.6242C78.266 32.9111 76.5008 35.0242 73.7939 35.0242C72.264 35.0242 71.0871 34.3198 70.4988 33.1459V38.4285H68.2627V24.3415H70.381V26.1024C70.9695 24.9285 72.264 24.2241 73.7939 24.2241C76.5008 24.1068 78.266 26.3372 78.266 29.6242ZM76.03 29.6242C76.03 27.5111 74.9708 26.1024 73.2056 26.1024C71.5579 26.1024 70.381 27.5111 70.381 29.6242C70.381 31.7372 71.5579 33.1459 73.2056 33.1459C74.9708 33.1459 76.03 31.7372 76.03 29.6242Z" fill="white"/>
<path d="M86.0329 30.7969C86.1506 32.2056 87.5628 33.1447 89.5635 33.1447C91.4464 33.1447 92.741 32.2056 92.741 30.9143C92.741 29.7403 91.9172 29.1534 90.0342 28.6838L88.1512 28.2143C85.4444 27.5099 84.2676 26.336 84.2676 24.3403C84.2676 21.8751 86.5037 20.1143 89.5635 20.1143C92.6233 20.1143 94.7416 21.8751 94.8593 24.3403H92.6233C92.5056 22.9316 91.3287 21.9925 89.5635 21.9925C87.7981 21.9925 86.6213 22.9316 86.6213 24.223C86.6213 25.2795 87.4451 25.8664 89.3281 26.336L90.9757 26.6882C93.9179 27.3925 95.2123 28.5664 95.2123 30.6795C95.2123 33.3795 92.9764 35.1403 89.5635 35.1403C86.2683 35.1403 84.15 33.4969 84.0322 30.7969H86.0329Z" fill="white"/>
<path d="M99.6844 21.7588V24.224H101.685V25.9849H99.6844V31.8544C99.6844 32.7936 100.037 33.1457 100.979 33.1457C101.214 33.1457 101.567 33.1457 101.685 33.1457V34.9066C101.45 35.024 100.979 35.024 100.508 35.024C98.3898 35.024 97.5661 34.2023 97.5661 32.2066V26.1023H96.0361V24.3414H97.5661V21.8762H99.6844V21.7588Z" fill="white"/>
<path d="M102.979 29.6236C102.979 26.3367 104.98 24.2236 108.04 24.2236C111.1 24.2236 113.1 26.3367 113.1 29.6236C113.1 33.028 111.1 35.0236 108.04 35.0236C104.862 35.0236 102.979 32.9106 102.979 29.6236ZM110.864 29.6236C110.864 27.2758 109.805 25.9845 108.04 25.9845C106.275 25.9845 105.216 27.2758 105.216 29.6236C105.216 31.9715 106.275 33.2628 108.04 33.2628C109.805 33.2628 110.864 31.8541 110.864 29.6236Z" fill="white"/>
<path d="M114.866 24.2236H116.985V26.1019C117.338 24.928 118.279 24.2236 119.574 24.2236C119.927 24.2236 120.162 24.2236 120.28 24.341V26.3367C120.162 26.2193 119.691 26.2193 119.339 26.2193C117.926 26.2193 117.102 27.1584 117.102 28.6845V35.0236H114.866V24.2236Z" fill="white"/>
<path d="M130.009 31.7359C129.774 33.6142 127.773 35.0229 125.419 35.0229C122.36 35.0229 120.359 32.9098 120.359 29.6229C120.359 26.3359 122.242 24.1055 125.302 24.1055C128.243 24.1055 130.126 26.1011 130.126 29.3881V30.0924H122.595V30.2098C122.595 31.9707 123.772 33.262 125.419 33.262C126.596 33.262 127.538 32.675 127.891 31.7359H130.009ZM122.595 28.5663H127.891C127.891 26.9229 126.831 25.8663 125.302 25.8663C123.772 25.8663 122.713 27.0403 122.595 28.5663Z" fill="white"/>
</g>
<path d="M48.0957 14.7954V15.6699H43.3804V14.7954H48.0957ZM43.6528 14.7954V17.2432H42.5981L42.5586 14.7954H43.6528ZM48.9482 14.7954L48.8823 17.2388H47.8452V14.7954H48.9482ZM47.3223 9.27148V10.1504H44.3691V9.27148H47.3223ZM48.166 9.27148V15.6699H47.0674V9.27148H48.166ZM44.1494 9.27148H45.2524L45.0986 11.8643C45.0752 12.2744 45.0327 12.6436 44.9712 12.9717C44.9097 13.2998 44.835 13.5942 44.7471 13.855C44.6621 14.1128 44.5654 14.3413 44.457 14.5405C44.3486 14.7368 44.2329 14.9067 44.1099 15.0503C43.9868 15.1938 43.8608 15.3169 43.7319 15.4194C43.606 15.519 43.4814 15.6025 43.3584 15.6699H42.7695V14.7954H43.0552C43.1343 14.7222 43.2222 14.6167 43.3188 14.479C43.4155 14.3384 43.5093 14.1553 43.6001 13.9297C43.6938 13.7012 43.7759 13.4185 43.8462 13.0815C43.9165 12.7446 43.9648 12.3389 43.9912 11.8643L44.1494 9.27148ZM52.3452 10.124L50.4336 15.6699H49.2778L51.686 9.27148H52.4243L52.3452 10.124ZM53.9448 15.6699L52.0288 10.124L51.9453 9.27148H52.688L55.105 15.6699H53.9448ZM53.8525 13.2969V14.1714H50.3721V13.2969H53.8525ZM58.5107 9.27148H59.4951L61.3452 14.2065L63.1909 9.27148H64.1753L61.7319 15.6699H60.9497L58.5107 9.27148ZM58.0625 9.27148H58.9985L59.1611 13.543V15.6699H58.0625V9.27148ZM63.6875 9.27148H64.6279V15.6699H63.5249V13.543L63.6875 9.27148ZM68.5083 10.124L66.5967 15.6699H65.4409L67.8491 9.27148H68.5874L68.5083 10.124ZM70.1079 15.6699L68.1919 10.124L68.1084 9.27148H68.8511L71.2681 15.6699H70.1079ZM70.0156 13.2969V14.1714H66.5352V13.2969H70.0156ZM74.3838 12.7783H72.7534L72.7446 11.9741H74.1685C74.4087 11.9741 74.6123 11.939 74.7793 11.8687C74.9492 11.7954 75.0781 11.6914 75.166 11.5566C75.2539 11.4189 75.2979 11.2534 75.2979 11.0601C75.2979 10.8462 75.2568 10.6719 75.1748 10.5371C75.0928 10.4023 74.9668 10.3042 74.7969 10.2427C74.6299 10.1812 74.416 10.1504 74.1553 10.1504H73.0874V15.6699H71.9844V9.27148H74.1553C74.5068 9.27148 74.8203 9.30518 75.0957 9.37256C75.374 9.43994 75.6099 9.54541 75.8032 9.68896C75.9995 9.82959 76.1475 10.0083 76.2471 10.2251C76.3496 10.4419 76.4009 10.6997 76.4009 10.9985C76.4009 11.2622 76.3379 11.5039 76.2119 11.7236C76.0859 11.9404 75.8999 12.1177 75.6538 12.2554C75.4077 12.3931 75.1016 12.4751 74.7354 12.5015L74.3838 12.7783ZM74.3354 15.6699H72.4062L72.9028 14.7954H74.3354C74.5845 14.7954 74.7925 14.7544 74.9595 14.6724C75.1265 14.5874 75.251 14.4717 75.333 14.3252C75.418 14.1758 75.4604 14.0015 75.4604 13.8022C75.4604 13.5942 75.4238 13.4141 75.3506 13.2617C75.2773 13.1064 75.1616 12.9878 75.0034 12.9058C74.8452 12.8208 74.6387 12.7783 74.3838 12.7783H73.1445L73.1533 11.9741H74.7661L75.0166 12.2773C75.3682 12.2891 75.6567 12.3667 75.8823 12.5103C76.1108 12.6538 76.2808 12.8398 76.3921 13.0684C76.5034 13.2969 76.5591 13.543 76.5591 13.8066C76.5591 14.2139 76.4697 14.5552 76.291 14.8306C76.1152 15.106 75.8618 15.3154 75.5308 15.459C75.1997 15.5996 74.8013 15.6699 74.3354 15.6699ZM79.6133 12.9014L77.2446 9.27148H78.585L80.145 11.9478H81.2964L81.1426 12.9014H79.6133ZM80.1626 12.7607L78.4839 15.6699H77.1128L79.3408 12.0137L80.1626 12.7607ZM81.9336 9.27148V15.6699H80.835V9.27148H81.9336ZM85.48 9.27148L83.1289 12.9014H81.6216L81.4678 11.9478H82.5972L84.1353 9.27148H85.48ZM84.2363 15.6699L82.584 12.7607L83.4102 12.0137L85.6074 15.6699H84.2363ZM88.2881 13.4419L89.9141 9.27148H91.1313L88.9077 14.5098C88.8374 14.6709 88.7568 14.8276 88.666 14.98C88.5781 15.1294 88.4712 15.2627 88.3452 15.3799C88.2192 15.4971 88.0669 15.5908 87.8882 15.6611C87.7095 15.7285 87.4927 15.7622 87.2378 15.7622C87.1704 15.7622 87.0884 15.7593 86.9917 15.7534C86.8979 15.7476 86.8291 15.7417 86.7852 15.7358L86.7939 14.8701C86.8291 14.876 86.8877 14.8804 86.9697 14.8833C87.0547 14.8862 87.1162 14.8877 87.1543 14.8877C87.3242 14.8877 87.459 14.8599 87.5586 14.8042C87.6582 14.7456 87.7373 14.668 87.7959 14.5713C87.8574 14.4717 87.9116 14.3633 87.9585 14.2461L88.2881 13.4419ZM87.0664 9.27148L88.6748 12.8135L88.9912 13.9648L88.1343 13.9956L85.8623 9.27148H87.0664ZM96.6641 14.7954V15.6699H91.9487V14.7954H96.6641ZM92.2212 14.7954V17.2432H91.1665L91.127 14.7954H92.2212ZM97.5166 14.7954L97.4507 17.2388H96.4136V14.7954H97.5166ZM95.8906 9.27148V10.1504H92.9375V9.27148H95.8906ZM96.7344 9.27148V15.6699H95.6357V9.27148H96.7344ZM92.7178 9.27148H93.8208L93.667 11.8643C93.6436 12.2744 93.6011 12.6436 93.5396 12.9717C93.478 13.2998 93.4033 13.5942 93.3154 13.855C93.2305 14.1128 93.1338 14.3413 93.0254 14.5405C92.917 14.7368 92.8013 14.9067 92.6782 15.0503C92.5552 15.1938 92.4292 15.3169 92.3003 15.4194C92.1743 15.519 92.0498 15.6025 91.9268 15.6699H91.3379V14.7954H91.6235C91.7026 14.7222 91.7905 14.6167 91.8872 14.479C91.9839 14.3384 92.0776 14.1553 92.1685 13.9297C92.2622 13.7012 92.3442 13.4185 92.4146 13.0815C92.4849 12.7446 92.5332 12.3389 92.5596 11.8643L92.7178 9.27148Z" fill="white"/>
<rect x="1.47493" y="1.08333" width="141.225" height="45.1667" rx="5.41667" stroke="#D8D8D8" stroke-opacity="0.2" stroke-width="2.16667"/>
<defs>
<clipPath id="clip0_11998_265957">
<rect x="13.3916" y="8.66699" width="117.391" height="30" rx="6.52174" fill="white"/>
</clipPath>
</defs>
</svg>
