<svg width="9" height="16" viewBox="0 0 9 16" fill="none" xmlns="http://www.w3.org/2000/svg">
<path d="M1.14526 15.5938C1.28388 15.5941 1.42119 15.567 1.54931 15.5141C1.67742 15.4612 1.79381 15.3835 1.89179 15.2854L8.16584 9.00973C8.36355 8.81192 8.47461 8.54369 8.47461 8.26402C8.47461 7.98434 8.36355 7.71611 8.16584 7.5183L1.91613 1.26859C1.81982 1.16412 1.7034 1.08019 1.57386 1.02182C1.44431 0.963454 1.30431 0.93186 1.16225 0.928935C1.0202 0.926009 0.879014 0.951813 0.747175 1.0048C0.615336 1.05778 0.495561 1.13685 0.395035 1.23727C0.29451 1.33769 0.215307 1.45738 0.16218 1.58916C0.109052 1.72094 0.0830936 1.86209 0.0858641 2.00415C0.0886354 2.14621 0.120077 2.28625 0.178303 2.41586C0.236528 2.54547 0.320339 2.66198 0.424704 2.7584L5.92789 8.26321L0.398737 13.794C0.250961 13.9415 0.150296 14.1296 0.109491 14.3344C0.0686855 14.5392 0.0895777 14.7514 0.16952 14.9444C0.249463 15.1373 0.384858 15.3021 0.558558 15.418C0.732259 15.5339 0.936448 15.5956 1.14526 15.5954V15.5938Z" fill="#333333"/>
</svg>
