<svg width="9" height="16" viewBox="0 0 9 16" fill="none" xmlns="http://www.w3.org/2000/svg">
<path d="M7.85376 15.5938C7.71515 15.5941 7.57783 15.567 7.44972 15.5141C7.3216 15.4612 7.20521 15.3835 7.10724 15.2854L0.833185 9.00973C0.635477 8.81192 0.524414 8.54369 0.524414 8.26402C0.524414 7.98434 0.635477 7.71611 0.833185 7.5183L7.08289 1.26859C7.1792 1.16412 7.29562 1.08019 7.42516 1.02182C7.55471 0.963454 7.69471 0.93186 7.83677 0.928935C7.97883 0.926009 8.12001 0.951813 8.25185 1.0048C8.38369 1.05778 8.50346 1.13685 8.60399 1.23727C8.70451 1.33769 8.78372 1.45738 8.83684 1.58916C8.88997 1.72094 8.91593 1.86209 8.91316 2.00415C8.91039 2.14621 8.87895 2.28625 8.82072 2.41586C8.7625 2.54547 8.67868 2.66198 8.57432 2.7584L3.07114 8.26321L8.60029 13.794C8.74806 13.9415 8.84873 14.1296 8.88953 14.3344C8.93034 14.5392 8.90945 14.7514 8.8295 14.9444C8.74956 15.1373 8.61417 15.3021 8.44046 15.418C8.26676 15.5339 8.06258 15.5956 7.85376 15.5954V15.5938Z" fill="#333333"/>
</svg>
