<svg width="17" height="16" viewBox="0 0 17 16" fill="none" xmlns="http://www.w3.org/2000/svg">
<path d="M5.14587 15.3317C5.28449 15.332 5.4218 15.3049 5.54992 15.252C5.67803 15.1991 5.79443 15.1214 5.8924 15.0233L12.1664 8.74765C12.3642 8.54983 12.4752 8.28161 12.4752 8.00193C12.4752 7.72226 12.3642 7.45403 12.1664 7.25622L5.91674 1.00651C5.82043 0.90204 5.70401 0.818103 5.57447 0.759736C5.44492 0.701369 5.30492 0.669775 5.16286 0.66685C5.02081 0.663924 4.87962 0.689728 4.74779 0.742712C4.61595 0.795696 4.49617 0.874769 4.39565 0.975185C4.29512 1.0756 4.21592 1.19529 4.16279 1.32707C4.10966 1.45885 4.0837 1.60001 4.08647 1.74207C4.08925 1.88413 4.12069 2.02416 4.17891 2.15377C4.23714 2.28338 4.32095 2.39989 4.42531 2.49631L9.9285 8.00112L4.39935 13.5319C4.25157 13.6794 4.15091 13.8675 4.1101 14.0723C4.0693 14.2771 4.09019 14.4894 4.17013 14.6823C4.25007 14.8752 4.38547 15.04 4.55917 15.1559C4.73287 15.2718 4.93706 15.3335 5.14587 15.3333V15.3317Z" fill="#333333"/>
</svg>
