<svg width="17" height="16" viewBox="0 0 17 16" fill="none" xmlns="http://www.w3.org/2000/svg">
<path d="M11.854 15.3317C11.7154 15.332 11.5781 15.3049 11.45 15.252C11.3218 15.1991 11.2055 15.1214 11.1075 15.0233L4.83343 8.74765C4.63572 8.54983 4.52466 8.28161 4.52466 8.00193C4.52466 7.72226 4.63572 7.45403 4.83343 7.25622L11.0831 1.00651C11.1794 0.90204 11.2959 0.818103 11.4254 0.759736C11.555 0.701369 11.695 0.669775 11.837 0.66685C11.9791 0.663924 12.1203 0.689728 12.2521 0.742712C12.3839 0.795696 12.5037 0.874769 12.6042 0.975185C12.7048 1.0756 12.784 1.19529 12.8371 1.32707C12.8902 1.45885 12.9162 1.60001 12.9134 1.74207C12.9106 1.88413 12.8792 2.02416 12.821 2.15377C12.7627 2.28338 12.6789 2.39989 12.5746 2.49631L7.07138 8.00112L12.6005 13.5319C12.7483 13.6794 12.849 13.8675 12.8898 14.0723C12.9306 14.2771 12.9097 14.4894 12.8297 14.6823C12.7498 14.8752 12.6144 15.04 12.4407 15.1559C12.267 15.2718 12.0628 15.3335 11.854 15.3333V15.3317Z" fill="#333333"/>
</svg>
