<svg width="20" height="20" viewBox="0 0 20 20" fill="none" xmlns="http://www.w3.org/2000/svg">
<path d="M17.1514 4.80793C17.1514 4.40281 16.9905 4.01428 16.704 3.72781C16.4176 3.44135 16.029 3.28041 15.6239 3.28041H12.8133C12.673 2.5898 12.2984 1.9689 11.7527 1.52292C11.2071 1.07694 10.524 0.833313 9.81933 0.833313C9.11462 0.833313 8.43158 1.07694 7.88594 1.52292C7.3403 1.9689 6.96562 2.5898 6.82538 3.28041H4.01474C3.63607 3.28358 3.27208 3.42729 2.99338 3.68366C2.71468 3.94003 2.54114 4.29078 2.50643 4.66787C2.47172 5.04496 2.57832 5.42149 2.80554 5.72443C3.03275 6.02737 3.3644 6.23511 3.73612 6.30735L4.22798 16.6261C4.25945 17.3111 4.554 17.9576 5.05026 18.4308C5.54652 18.9041 6.20623 19.1677 6.89198 19.1666H12.7467C13.4324 19.1677 14.0921 18.9041 14.5884 18.4308C15.0847 17.9576 15.3792 17.3111 15.4107 16.6261L15.8995 6.30735C16.2504 6.24298 16.5678 6.0578 16.7964 5.78391C17.0251 5.51003 17.1507 5.16473 17.1514 4.80793ZM9.81933 2.05839C10.1971 2.05996 10.5651 2.1782 10.8731 2.39695C11.1811 2.61569 11.414 2.92425 11.5399 3.28041H8.09873C8.22464 2.92425 8.45753 2.61569 8.76552 2.39695C9.07351 2.1782 9.44156 2.05996 9.81933 2.05839ZM14.1899 16.5686C14.1729 16.9397 14.0133 17.2899 13.7444 17.5463C13.4756 17.8026 13.1182 17.9453 12.7467 17.9446H6.89198C6.5205 17.9453 6.16307 17.8026 5.89421 17.5463C5.62534 17.2899 5.46578 16.9397 5.44878 16.5686L4.96119 6.33546H14.6762L14.1899 16.5686ZM15.6239 5.11344H4.01474C3.93372 5.11344 3.85601 5.08125 3.79872 5.02396C3.74142 4.96666 3.70924 4.88896 3.70924 4.80793C3.70924 4.72691 3.74142 4.6492 3.79872 4.59191C3.85601 4.53462 3.93372 4.50243 4.01474 4.50243H15.6239C15.7049 4.50243 15.7826 4.53462 15.8399 4.59191C15.8972 4.6492 15.9294 4.72691 15.9294 4.80793C15.9294 4.88896 15.8972 4.96666 15.8399 5.02396C15.7826 5.08125 15.7049 5.11344 15.6239 5.11344Z" fill="#BABAC0"/>
<path d="M7.98625 15.5006C8.1483 15.5006 8.30372 15.4362 8.4183 15.3216C8.53289 15.207 8.59726 15.0516 8.59726 14.8896V8.77947C8.59726 8.61742 8.53289 8.462 8.4183 8.34742C8.30372 8.23283 8.1483 8.16846 7.98625 8.16846C7.8242 8.16846 7.66879 8.23283 7.5542 8.34742C7.43962 8.462 7.37524 8.61742 7.37524 8.77947V14.8896C7.37524 15.0516 7.43962 15.207 7.5542 15.3216C7.66879 15.4362 7.8242 15.5006 7.98625 15.5006Z" fill="#BABAC0"/>
<path d="M11.6523 15.5006C11.8143 15.5006 11.9697 15.4362 12.0843 15.3216C12.1989 15.207 12.2633 15.0516 12.2633 14.8896V8.77947C12.2633 8.61742 12.1989 8.462 12.0843 8.34742C11.9697 8.23283 11.8143 8.16846 11.6523 8.16846C11.4902 8.16846 11.3348 8.23283 11.2202 8.34742C11.1056 8.462 11.0413 8.61742 11.0413 8.77947V14.8896C11.0413 15.0516 11.1056 15.207 11.2202 15.3216C11.3348 15.4362 11.4902 15.5006 11.6523 15.5006Z" fill="#BABAC0"/>
</svg>
