<svg width="48" height="48" viewBox="0 0 48 48" fill="none" xmlns="http://www.w3.org/2000/svg">
<rect width="48" height="48" rx="24" fill="#FBC100"/>
<path d="M19.73 34.31C19.4585 34.3108 19.1898 34.2564 18.94 34.15C18.6326 34.0172 18.3635 33.8094 18.1574 33.5455C17.9512 33.2817 17.8146 32.9704 17.76 32.64L17.43 30.64C16.8122 30.3129 16.2544 29.8835 15.78 29.37C13.42 26.63 13.42 19.37 15.78 16.63C17.21 15 20.28 14 24 14C27.72 14 30.79 15 32.22 16.63C34.58 19.37 34.58 26.63 32.22 29.37C30.51 31.37 26.75 32 23.82 31.99L20.82 33.99C20.4967 34.203 20.1171 34.3145 19.73 34.31ZM24 16C21 16 18.3 16.78 17.29 17.94C15.58 19.94 15.58 26.07 17.29 28.06C17.6001 28.3812 17.9618 28.6482 18.36 28.85C18.6275 29.0003 18.8569 29.2102 19.0303 29.4634C19.2037 29.7166 19.3165 30.0062 19.36 30.31L19.69 32.31L22.69 30.31C23.0325 30.0997 23.4282 29.9921 23.83 30C26.93 30 29.68 29.25 30.7 28.07C32.42 26.07 32.42 19.94 30.7 17.95C29.7 16.78 27 16 24 16Z" fill="black"/>
<path d="M20 24.25C20.6904 24.25 21.25 23.6904 21.25 23C21.25 22.3096 20.6904 21.75 20 21.75C19.3096 21.75 18.75 22.3096 18.75 23C18.75 23.6904 19.3096 24.25 20 24.25Z" fill="black"/>
<path d="M24 24.25C24.6904 24.25 25.25 23.6904 25.25 23C25.25 22.3096 24.6904 21.75 24 21.75C23.3096 21.75 22.75 22.3096 22.75 23C22.75 23.6904 23.3096 24.25 24 24.25Z" fill="black"/>
<path d="M28 24.25C28.6904 24.25 29.25 23.6904 29.25 23C29.25 22.3096 28.6904 21.75 28 21.75C27.3096 21.75 26.75 22.3096 26.75 23C26.75 23.6904 27.3096 24.25 28 24.25Z" fill="black"/>
</svg>
