<svg width="20" height="20" viewBox="0 0 20 20" fill="none" xmlns="http://www.w3.org/2000/svg">
<rect width="20" height="20" rx="8" fill="#333333" fill-opacity="0.05"/>
<path d="M10.9401 9.99996L14.4735 6.47329C14.599 6.34776 14.6695 6.1775 14.6695 5.99996C14.6695 5.82243 14.599 5.65216 14.4735 5.52663C14.3479 5.40109 14.1777 5.33057 14.0001 5.33057C13.8226 5.33057 13.6523 5.40109 13.5268 5.52663L10.0001 9.05996L6.47346 5.52663C6.34792 5.40109 6.17766 5.33057 6.00012 5.33057C5.82259 5.33057 5.65232 5.40109 5.52679 5.52663C5.40125 5.65216 5.33073 5.82243 5.33073 5.99996C5.33073 6.1775 5.40125 6.34776 5.52679 6.47329L9.06012 9.99996L5.52679 13.5266C5.4643 13.5886 5.41471 13.6623 5.38086 13.7436C5.34702 13.8248 5.32959 13.912 5.32959 14C5.32959 14.088 5.34702 14.1751 5.38086 14.2563C5.41471 14.3376 5.4643 14.4113 5.52679 14.4733C5.58876 14.5358 5.6625 14.5854 5.74374 14.6192C5.82498 14.6531 5.91211 14.6705 6.00012 14.6705C6.08813 14.6705 6.17527 14.6531 6.25651 14.6192C6.33775 14.5854 6.41148 14.5358 6.47346 14.4733L10.0001 10.94L13.5268 14.4733C13.5888 14.5358 13.6625 14.5854 13.7437 14.6192C13.825 14.6531 13.9121 14.6705 14.0001 14.6705C14.0881 14.6705 14.1753 14.6531 14.2565 14.6192C14.3377 14.5854 14.4115 14.5358 14.4735 14.4733C14.5359 14.4113 14.5855 14.3376 14.6194 14.2563C14.6532 14.1751 14.6707 14.088 14.6707 14C14.6707 13.912 14.6532 13.8248 14.6194 13.7436C14.5855 13.6623 14.5359 13.5886 14.4735 13.5266L10.9401 9.99996Z" fill="#767676"/>
</svg>
