<svg width="16" height="16" viewBox="0 0 16 16" fill="none" xmlns="http://www.w3.org/2000/svg">
<path d="M7.99922 8.6C8.99333 8.6 9.79922 7.79411 9.79922 6.8C9.79922 5.80589 8.99333 5 7.99922 5C7.00511 5 6.19922 5.80589 6.19922 6.8C6.19922 7.79411 7.00511 8.6 7.99922 8.6Z" stroke="black" stroke-width="1.2"/>
<path d="M8.00146 15.0004L7.54971 15.3953C7.6636 15.5256 7.82823 15.6003 8.0013 15.6004C8.17438 15.6004 8.33904 15.5257 8.45301 15.3955L8.00146 15.0004ZM3.806 10.2004L3.34008 10.5784C3.3447 10.5841 3.34942 10.5897 3.35424 10.5953L3.806 10.2004ZM12.2015 10.2004L12.653 10.5955C12.6579 10.5899 12.6627 10.5842 12.6674 10.5784L12.2015 10.2004ZM3.20146 6.80041C3.20146 4.14944 5.3505 2.00041 8.00146 2.00041V0.800415C4.68775 0.800415 2.00146 3.4867 2.00146 6.80041H3.20146ZM8.00146 2.00041C10.6524 2.00041 12.8015 4.14944 12.8015 6.80041H14.0015C14.0015 3.4867 11.3152 0.800415 8.00146 0.800415V2.00041ZM8.45322 14.6055L4.25776 9.80555L3.35424 10.5953L7.54971 15.3953L8.45322 14.6055ZM11.7499 9.80531L7.54992 14.6053L8.45301 15.3955L12.653 10.5955L11.7499 9.80531ZM12.8015 6.80041C12.8015 7.94783 12.4042 8.99825 11.7355 9.82236L12.6674 10.5784C13.5051 9.54601 14.0015 8.23012 14.0015 6.80041H12.8015ZM4.27192 9.82236C3.60229 8.99708 3.20146 7.94637 3.20146 6.80041H2.00146C2.00146 8.23159 2.50331 9.54718 3.34008 10.5784L4.27192 9.82236Z" fill="black"/>
</svg> 