<svg width="17" height="16" viewBox="0 0 17 16" fill="none" xmlns="http://www.w3.org/2000/svg">
<path d="M15.1398 11.3159V13.3231C15.1405 13.5095 15.1024 13.6939 15.0277 13.8646C14.9531 14.0353 14.8436 14.1886 14.7062 14.3146C14.5689 14.4406 14.4068 14.5365 14.2303 14.5961C14.0539 14.6558 13.8668 14.678 13.6812 14.6612C11.6224 14.4375 9.64472 13.734 7.90713 12.6072C6.29055 11.58 4.91997 10.2094 3.89273 8.59282C2.76198 6.84733 2.0583 4.86006 1.83868 2.79197C1.82196 2.60695 1.84395 2.42047 1.90325 2.24442C1.96255 2.06836 2.05785 1.90658 2.1831 1.76937C2.30834 1.63217 2.46079 1.52255 2.63072 1.44749C2.80065 1.37243 2.98436 1.33357 3.17013 1.33339H5.17734C5.50204 1.3302 5.81683 1.44518 6.06303 1.65691C6.30922 1.86864 6.47003 2.16267 6.51548 2.48419C6.60019 3.12654 6.75731 3.75725 6.98383 4.36428C7.07384 4.60375 7.09332 4.86401 7.03996 5.11423C6.9866 5.36443 6.86263 5.5941 6.68274 5.77601L5.83302 6.62573C6.78548 8.30079 8.17238 9.68766 9.84741 10.6402L10.6972 9.79043C10.879 9.61051 11.1087 9.48657 11.3589 9.43322C11.6092 9.37986 11.8694 9.39935 12.1089 9.48935C12.7159 9.71583 13.3466 9.87298 13.989 9.95772C14.314 10.0036 14.6108 10.1673 14.823 10.4177C15.0352 10.6681 15.1479 10.9877 15.1398 11.3159Z" stroke="#333333" stroke-linecap="round" stroke-linejoin="round"/>
</svg>
