<svg width="14" height="14" viewBox="0 0 14 14" fill="none" xmlns="http://www.w3.org/2000/svg">
  <g clip-path="url(#clip0_12605_1565)">
    <path d="M0.330402 4.86993C0.11084 5.55861 -0.000616573 6.27717 2.56529e-06 7.00001C2.56529e-06 7.74271 0.116202 8.4588 0.330402 9.13009L7 9.43459L13.6696 9.13009C13.8838 8.4581 14 7.74271 14 7.00001C14.0007 6.27694 13.8892 5.55814 13.6696 4.86923L7 4.56543L0.330402 4.86993Z" fill="#F0F0F0"/>
    <path d="M13.669 4.86923L6.99941 4.56543L0.329816 4.86923C0.266076 5.06966 0.21142 5.27286 0.166016 5.47822H13.8328C13.7874 5.27286 13.7328 5.06965 13.669 4.86923ZM0.166016 8.5218C0.212216 8.7283 0.266816 8.9313 0.330516 9.13079L7.00011 9.43459L13.669 9.13009C13.733 8.92968 13.7879 8.72648 13.8335 8.5211L0.166016 8.5218Z" fill="#D80027"/>
    <path d="M6.99968 13.9997C10.1231 13.9997 12.7677 11.9544 13.6693 9.12988H0.330078C1.23168 11.9544 3.87768 13.9997 6.99968 13.9997Z" fill="#6DA544"/>
    <path d="M6.99968 0C3.87628 0 1.23168 2.04538 0.330078 4.86986H13.6693C12.7677 2.04538 10.1231 0 6.99968 0Z" fill="#338AF3"/>
    <path d="M3.19865 2.89067C3.19865 2.23548 3.65925 1.68808 4.27455 1.55368C4.07439 1.5095 3.86687 1.5108 3.66728 1.55748C3.4677 1.60417 3.28113 1.69504 3.12133 1.82341C2.96153 1.95178 2.83258 2.11438 2.74398 2.29921C2.65537 2.48404 2.60938 2.6864 2.60938 2.89137C2.60938 3.09635 2.65537 3.29871 2.74398 3.48354C2.83258 3.66837 2.96153 3.83096 3.12133 3.95933C3.28113 4.08771 3.4677 4.17858 3.66728 4.22526C3.86687 4.27194 4.07439 4.27324 4.27455 4.22906C3.96951 4.16204 3.69653 3.99279 3.50085 3.74937C3.30518 3.50596 3.19855 3.20299 3.19865 2.89067ZM5.08374 3.51367L5.17684 3.79857H5.47645L5.23424 3.97497L5.32664 4.26056L5.08374 4.08416L4.84154 4.26056L4.93394 3.97497L4.69104 3.79857H4.99134L5.08374 3.51367ZM6.04134 3.51367L6.13444 3.79857H6.43474L6.19184 3.97497L6.28424 4.26056L6.04134 4.08416L5.79914 4.26056L5.89154 3.97497L5.64864 3.79857H5.94894L6.04134 3.51367ZM6.99964 3.51367L7.09204 3.79857H7.39164L7.14944 3.97497L7.24184 4.26056L6.99964 4.08416L6.75744 4.26056L6.84984 3.97497L6.60694 3.79857H6.90724L6.99964 3.51367ZM7.95654 3.51367L8.04964 3.79857H8.34924L8.10704 3.97497L8.19944 4.26056L7.95654 4.08416L7.71434 4.26056L7.80674 3.97497L7.56384 3.79857H7.86414L7.95654 3.51367ZM8.91414 3.51367L9.00724 3.79857H9.30684L9.06464 3.97497L9.15704 4.26056L8.91414 4.08416L8.67194 4.26056L8.76434 3.97497L8.52144 3.79857H8.82174L8.91414 3.51367ZM6.04134 2.51758L6.13444 2.80247H6.43474L6.19184 2.97887L6.28424 3.26447L6.04134 3.08807L5.79914 3.26447L5.89154 2.97887L5.64864 2.80247H5.94894L6.04134 2.51758ZM6.99964 2.51758L7.09204 2.80247H7.39164L7.14944 2.97887L7.24184 3.26447L6.99964 3.08807L6.75744 3.26447L6.84984 2.97887L6.60694 2.80247H6.90724L6.99964 2.51758ZM7.95654 2.51758L8.04964 2.80247H8.34924L8.10704 2.97887L8.19944 3.26447L7.95654 3.08807L7.71434 3.26447L7.80674 2.97887L7.56384 2.80247H7.86414L7.95654 2.51758ZM8.91414 2.51758L9.00724 2.80247H9.30684L9.06464 2.97887L9.15704 3.26447L8.91414 3.08807L8.67194 3.26447L8.76434 2.97887L8.52144 2.80247H8.82174L8.91414 2.51758ZM6.99964 1.52148L7.09204 1.80638H7.39164L7.14944 1.98278L7.24184 2.26838L6.99964 2.09268L6.75744 2.26908L6.84984 1.98348L6.60694 1.80708H6.90724L6.99964 1.52218V1.52148ZM7.95654 1.52148L8.04964 1.80638H8.34924L8.10704 1.98278L8.19944 2.26838L7.95654 2.09198L7.71434 2.26838L7.80674 1.98278L7.56384 1.80638H7.86414L7.95654 1.52148ZM8.91414 1.52148L9.00724 1.80638H9.30684L9.06464 1.98278L9.15704 2.26838L8.91414 2.09198L8.67194 2.26838L8.76434 1.98278L8.52144 1.80638H8.82174L8.91414 1.52148Z" fill="#F0F0F0"/>
  </g>
  <defs>
    <clipPath id="clip0_12605_1565">
      <rect width="14" height="14" rx="7" fill="white"/>
    </clipPath>
  </defs>
</svg>