<svg width="20" height="20" viewBox="0 0 20 20" fill="none" xmlns="http://www.w3.org/2000/svg">
<path d="M10.3994 17.0042C10.1211 16.8846 9.84272 16.765 9.56436 16.6453C8.8971 16.3579 8.22983 16.0704 7.56059 15.783C6.75711 15.4357 5.95166 15.0903 5.14817 14.7431C4.44932 14.4421 3.75245 14.1411 3.05359 13.8421C2.71601 13.6974 2.38041 13.543 2.03888 13.4041C2.03296 13.4022 2.02901 13.4003 2.02506 13.3984C2.15535 13.6202 2.28565 13.8421 2.41594 14.064C2.41594 13.7649 2.41594 13.4659 2.41594 13.1649C2.41594 12.4453 2.41594 11.7276 2.41594 11.008C2.41594 10.1417 2.41594 9.27546 2.41594 8.40921C2.41594 7.66065 2.41594 6.91015 2.41594 6.16159C2.41594 5.79502 2.42384 5.42846 2.41594 5.06382C2.41594 5.05803 2.41594 5.05418 2.41594 5.04839C2.01914 5.27026 1.62431 5.49212 1.2275 5.71399C1.50586 5.83361 1.78421 5.95323 2.06257 6.07284C2.72983 6.36031 3.3971 6.64777 4.06634 6.93523C4.86982 7.28251 5.67527 7.62785 6.47876 7.97512C7.17761 8.27609 7.87448 8.57706 8.57334 8.8761C8.91092 9.0208 9.24652 9.17514 9.58805 9.31405C9.59398 9.31598 9.59792 9.31791 9.60187 9.31983C9.47158 9.09797 9.34128 8.8761 9.21099 8.65423C9.21099 8.95327 9.21099 9.25231 9.21099 9.55328C9.21099 10.2729 9.21099 10.9906 9.21099 11.7102C9.21099 12.5765 9.21099 13.4427 9.21099 14.309C9.21099 15.0575 9.21099 15.808 9.21099 16.5566C9.21099 16.9232 9.20507 17.2897 9.21099 17.6544C9.21099 17.6602 9.21099 17.664 9.21099 17.6698C9.21099 18.073 9.57423 18.4608 10.0007 18.4415C10.429 18.4222 10.7903 18.102 10.7903 17.6698C10.7903 17.3708 10.7903 17.0717 10.7903 16.7708C10.7903 16.0511 10.7903 15.3334 10.7903 14.6138C10.7903 13.7476 10.7903 12.8813 10.7903 12.0151C10.7903 11.2665 10.7903 10.516 10.7903 9.76743C10.7903 9.40087 10.7962 9.0343 10.7903 8.66966C10.7903 8.66388 10.7903 8.66002 10.7903 8.65423C10.7903 8.40728 10.6462 8.09474 10.3994 7.98863C10.1211 7.86901 9.84272 7.74939 9.56436 7.62978C8.8971 7.34231 8.22983 7.05485 7.56059 6.76739C6.75711 6.42011 5.95166 6.07477 5.14817 5.7275C4.44932 5.42653 3.75245 5.12556 3.05359 4.82652C2.71601 4.67989 2.37646 4.5352 2.03888 4.38857C2.03493 4.38664 2.02901 4.38471 2.02506 4.38278C1.90266 4.31333 1.76842 4.2786 1.62628 4.27667C1.48414 4.27667 1.35187 4.3114 1.2275 4.38278C0.986652 4.51976 0.836617 4.77636 0.836617 5.04839C0.836617 5.34743 0.836617 5.64647 0.836617 5.94744C0.836617 6.66706 0.836617 7.38476 0.836617 8.10438C0.836617 8.97063 0.836617 9.83688 0.836617 10.7031C0.836617 11.4517 0.836617 12.2022 0.836617 12.9508C0.836617 13.3173 0.830694 13.6839 0.836617 14.0485C0.836617 14.0543 0.836617 14.0582 0.836617 14.064C0.836617 14.3109 0.98073 14.6235 1.2275 14.7296C1.50586 14.8492 1.78421 14.9688 2.06257 15.0884C2.72983 15.3759 3.3971 15.6633 4.06634 15.9508C4.86982 16.2981 5.67527 16.6434 6.47876 16.9907C7.17761 17.2917 7.87448 17.5926 8.57334 17.8917C8.91092 18.0383 9.25047 18.183 9.58805 18.3296C9.592 18.3315 9.59792 18.3335 9.60187 18.3354C9.80324 18.4222 9.98881 18.4724 10.2099 18.4126C10.3935 18.3624 10.5909 18.2254 10.6817 18.0576C10.7785 17.8782 10.8278 17.6621 10.7607 17.4634C10.7035 17.2878 10.583 17.0833 10.3994 17.0042Z" fill="#333333"/>
<path d="M17.9764 13.3984C17.698 13.518 17.4197 13.6376 17.1413 13.7572C16.4741 14.0447 15.8068 14.3321 15.1375 14.6196C14.3341 14.9669 13.5286 15.3122 12.7251 15.6595C12.0263 15.9604 11.3294 16.2614 10.6305 16.5605C10.293 16.7052 9.95144 16.846 9.61583 16.9984C9.61188 17.0003 9.60596 17.0023 9.60201 17.0042C9.99882 17.2261 10.3936 17.4479 10.7905 17.6698C10.7905 17.3708 10.7905 17.0717 10.7905 16.7708C10.7905 16.0511 10.7905 15.3334 10.7905 14.6138C10.7905 13.7476 10.7905 12.8813 10.7905 12.0151C10.7905 11.2665 10.7905 10.516 10.7905 9.76743C10.7905 9.40087 10.7984 9.0343 10.7905 8.66966C10.7905 8.66388 10.7905 8.66002 10.7905 8.65423C10.6602 8.8761 10.5299 9.09797 10.3996 9.31983C10.6779 9.20022 10.9563 9.0806 11.2346 8.96099C11.9019 8.67352 12.5692 8.38606 13.2384 8.09859C14.0419 7.75132 14.8473 7.40598 15.6508 7.05871C16.3497 6.75774 17.0466 6.45677 17.7454 6.15773C18.083 6.01303 18.4245 5.87219 18.7601 5.71978C18.7641 5.71785 18.77 5.71592 18.7739 5.71399C18.3771 5.49212 17.9823 5.27026 17.5855 5.04839C17.5855 5.34743 17.5855 5.64647 17.5855 5.94744C17.5855 6.66706 17.5855 7.38476 17.5855 8.10438C17.5855 8.97063 17.5855 9.83688 17.5855 10.7031C17.5855 11.4517 17.5855 12.2022 17.5855 12.9508C17.5855 13.3173 17.5796 13.6839 17.5855 14.0485C17.5855 14.0543 17.5855 14.0582 17.5855 14.064C17.5855 14.4672 17.9487 14.855 18.3752 14.8357C18.8036 14.8164 19.1648 14.4961 19.1648 14.064C19.1648 13.7649 19.1648 13.4659 19.1648 13.1649C19.1648 12.4453 19.1648 11.7276 19.1648 11.008C19.1648 10.1417 19.1648 9.27546 19.1648 8.40921C19.1648 7.66065 19.1648 6.91015 19.1648 6.16159C19.1648 5.79502 19.1707 5.42846 19.1648 5.06382C19.1648 5.05803 19.1648 5.05418 19.1648 5.04839C19.1648 4.77636 19.0148 4.51976 18.7739 4.38278C18.6515 4.31333 18.5173 4.2786 18.3752 4.27667C18.233 4.27667 18.1008 4.3114 17.9764 4.38278C17.698 4.5024 17.4197 4.62202 17.1413 4.74163C16.4741 5.0291 15.8068 5.31656 15.1375 5.60402C14.3341 5.9513 13.5286 6.29664 12.7251 6.64391C12.0263 6.94488 11.3294 7.24585 10.6305 7.54489C10.293 7.68959 9.94946 7.82657 9.61583 7.98284C9.61188 7.98477 9.60596 7.9867 9.60201 7.98863C9.35524 8.09474 9.21113 8.40728 9.21113 8.65423C9.21113 8.95327 9.21113 9.25231 9.21113 9.55328C9.21113 10.2729 9.21113 10.9906 9.21113 11.7102C9.21113 12.5765 9.21113 13.4427 9.21113 14.309C9.21113 15.0575 9.21113 15.808 9.21113 16.5566C9.21113 16.9232 9.20521 17.2897 9.21113 17.6544C9.21113 17.6602 9.21113 17.664 9.21113 17.6698C9.21113 17.9418 9.36116 18.1984 9.60201 18.3354C9.72441 18.4049 9.85865 18.4396 10.0008 18.4415C10.1429 18.4415 10.2752 18.4068 10.3996 18.3354C10.6779 18.2158 10.9563 18.0962 11.2346 17.9766C11.9019 17.6891 12.5692 17.4016 13.2384 17.1142C14.0419 16.7669 14.8473 16.4215 15.6508 16.0743C16.3497 15.7733 17.0466 15.4723 17.7454 15.1733C18.083 15.0286 18.4265 14.8916 18.7601 14.7354C18.7641 14.7334 18.77 14.7315 18.7739 14.7296C18.9437 14.6563 19.0898 14.4344 19.1372 14.2685C19.1885 14.0833 19.1648 13.8382 19.0582 13.6742C18.9496 13.5103 18.7878 13.3636 18.5864 13.3193C18.5173 13.3096 18.4462 13.3 18.3771 13.2922C18.233 13.2942 18.1008 13.3289 17.9764 13.3984Z" fill="#333333"/>
<path d="M17.9764 4.38277C17.698 4.50239 17.4197 4.622 17.1413 4.74162C16.474 5.02908 15.8068 5.31655 15.1375 5.60401C14.3341 5.95128 13.5286 6.29663 12.7251 6.6439C12.0263 6.94487 11.3294 7.24584 10.6305 7.54488C10.293 7.68957 9.95143 7.83041 9.61582 7.98283C9.61187 7.98475 9.60595 7.98668 9.602 7.98861C9.86851 7.98861 10.1331 7.98861 10.3996 7.98861C10.1212 7.869 9.84285 7.74938 9.56449 7.62977C8.89723 7.3423 8.22996 7.05484 7.56072 6.76737C6.75724 6.4201 5.95179 6.07476 5.1483 5.72749C4.44945 5.42652 3.75258 5.12555 3.05372 4.82651C2.71614 4.68181 2.38054 4.52747 2.03901 4.38856C2.03309 4.38663 2.02914 4.3847 2.02519 4.38277C1.96202 4.85352 1.89884 5.32234 1.83567 5.79308C2.11403 5.68504 2.39238 5.57893 2.67074 5.47089C3.33603 5.2143 4.00329 4.9577 4.66858 4.69917C5.47404 4.38856 6.2795 4.07794 7.08495 3.76733C7.7838 3.49723 8.48266 3.22713 9.18151 2.95896C9.51909 2.82776 9.86259 2.70815 10.1962 2.56731C10.2002 2.56538 10.2061 2.56345 10.21 2.56152C10.0699 2.56152 9.92971 2.56152 9.78955 2.56152C10.0679 2.66956 10.3463 2.77567 10.6246 2.88371C11.2899 3.14031 11.9572 3.3969 12.6225 3.65543C13.4279 3.96604 14.2334 4.27666 15.0388 4.58728C15.7377 4.85738 16.4365 5.12748 17.1354 5.39565C17.473 5.52684 17.8086 5.66768 18.1501 5.78729C18.154 5.78922 18.16 5.79115 18.1639 5.79308C18.3436 5.86254 18.614 5.80659 18.772 5.71591C18.9358 5.62138 19.0918 5.43809 19.1352 5.25481C19.1806 5.05802 19.1707 4.83615 19.0562 4.66059C19.0148 4.6085 18.9733 4.55641 18.9319 4.50432C18.8332 4.40785 18.7167 4.34226 18.5824 4.3056C18.3041 4.19756 18.0257 4.09145 17.7474 3.98341C17.0781 3.72488 16.4089 3.46636 15.7416 3.20976C14.9342 2.89722 14.1248 2.5866 13.3174 2.27406C12.6205 2.00589 11.9236 1.73579 11.2267 1.46762C10.8931 1.33835 10.5614 1.19944 10.2219 1.07983C10.0067 1.00459 9.84482 1.05475 9.6632 1.1242C9.48948 1.19173 9.31575 1.25925 9.14202 1.32485C8.51227 1.56794 7.88054 1.81103 7.25078 2.05412C6.4473 2.36473 5.64184 2.67535 4.83836 2.98597C4.11187 3.26571 3.38736 3.54546 2.66087 3.82714C2.26406 3.97955 1.86726 4.13389 1.47243 4.28631C1.45466 4.29402 1.43689 4.29981 1.41715 4.30753C1.2908 4.35576 1.16643 4.40978 1.06772 4.50625C0.943352 4.62779 0.874256 4.78213 0.850566 4.94998C0.830825 5.09082 0.848592 5.21815 0.903868 5.34935C0.965067 5.49018 1.07957 5.65417 1.22763 5.71784C1.50796 5.83746 1.78829 5.959 2.06665 6.07862C2.73786 6.36801 3.40907 6.6574 4.08029 6.9468C4.88772 7.29407 5.69515 7.64134 6.50258 7.99054C7.19748 8.28958 7.89238 8.58862 8.58926 8.88959C8.92289 9.03236 9.25652 9.17898 9.59016 9.31982C9.59411 9.32175 9.59608 9.32175 9.60003 9.32368H9.602C9.66517 9.34876 9.72835 9.37577 9.79152 9.40085C9.89615 9.43365 10.0008 9.43751 10.1074 9.41436C10.2179 9.39892 10.3107 9.36034 10.4134 9.31789C10.4489 9.30246 10.4864 9.28702 10.522 9.27159C10.6957 9.19635 10.8674 9.12303 11.0412 9.04779C11.6709 8.77576 12.3026 8.50566 12.9324 8.23363C13.7359 7.88829 14.5394 7.54102 15.3428 7.19567C16.0713 6.8812 16.7998 6.56866 17.5282 6.25418C17.927 6.08248 18.3238 5.91077 18.7226 5.74099C18.7404 5.73327 18.7581 5.72556 18.7779 5.71784C18.9477 5.64453 19.0937 5.42266 19.1411 5.25674C19.1925 5.07153 19.1688 4.82651 19.0622 4.66252C18.9536 4.49853 18.7917 4.3519 18.5903 4.30753C18.5212 4.29788 18.4502 4.28824 18.3811 4.28052C18.233 4.27859 18.1007 4.31332 17.9764 4.38277Z" fill="#333333"/>
<path d="M13.5977 6.74808C13.5977 7.48314 13.5977 8.2182 13.5977 8.95133C13.5977 9.05551 13.5977 9.15777 13.5977 9.26195C13.5977 9.66517 13.9609 10.053 14.3873 10.0337C14.8157 10.0144 15.177 9.69411 15.177 9.26195C15.177 8.52689 15.177 7.79183 15.177 7.0587C15.177 6.95452 15.177 6.85227 15.177 6.74808C15.177 6.34486 14.8137 5.95708 14.3873 5.97637C13.9589 5.99373 13.5977 6.31399 13.5977 6.74808Z" fill="#333333"/>
<path d="M5.8036 4.12426C6.08196 4.23615 6.35834 4.34805 6.63669 4.45995C7.30396 4.72812 7.96925 4.99629 8.63651 5.26447C9.44394 5.58859 10.2494 5.91271 11.0568 6.23683C11.7537 6.51658 12.4506 6.79825 13.1494 7.078C13.487 7.21305 13.8226 7.35967 14.1661 7.48701C14.1701 7.48894 14.176 7.49087 14.1799 7.49279C14.3556 7.56418 14.632 7.50437 14.788 7.41562C14.9518 7.32109 15.1078 7.13781 15.1512 6.95452C15.1966 6.75774 15.1868 6.53587 15.0723 6.3603C15.0308 6.30821 14.9893 6.25612 14.9479 6.20403C14.8492 6.10757 14.7327 6.04197 14.5985 6.00531C14.3201 5.89341 14.0437 5.78152 13.7654 5.66962C13.0981 5.40145 12.4328 5.13327 11.7656 4.8651C10.9581 4.54098 10.1527 4.21686 9.34524 3.89274C8.64836 3.61299 7.95148 3.33132 7.25263 3.05157C6.91505 2.91652 6.57944 2.76989 6.23594 2.64256C6.23199 2.64063 6.22607 2.6387 6.22212 2.63677C6.04642 2.56539 5.77004 2.6252 5.61408 2.71395C5.45023 2.80848 5.29427 2.99176 5.25084 3.17505C5.20543 3.37183 5.2153 3.5937 5.3298 3.76927C5.37126 3.82136 5.41272 3.87345 5.45417 3.92554C5.55288 4.022 5.66936 4.0876 5.8036 4.12426Z" fill="#333333"/>
</svg>
