<svg width="24" height="24" viewBox="0 0 24 24" fill="none" xmlns="http://www.w3.org/2000/svg">
<path fill-rule="evenodd" clip-rule="evenodd" d="M13.175 4.01805C12.829 4.14105 12.426 4.25005 12 4.25005C11.574 4.25005 11.171 4.14005 10.825 4.01805C10.58 3.93105 10.322 3.82205 10.093 3.72405L9.85205 3.62205C9.20205 3.35305 8.86205 3.29205 8.61505 3.38905C8.51094 3.42982 8.40759 3.4725 8.30505 3.51705C8.06105 3.62405 7.86505 3.90705 7.59505 4.55705L7.49705 4.80005C7.40305 5.03105 7.29905 5.29005 7.18705 5.52505C7.02905 5.85705 6.82105 6.21805 6.52005 6.52005C6.21905 6.82105 5.85705 7.02805 5.52605 7.18605C5.29105 7.29805 5.03105 7.40305 4.80005 7.49605L4.55805 7.59505C3.90805 7.86505 3.62405 8.06005 3.51805 8.30505C3.47283 8.40758 3.42949 8.51093 3.38805 8.61505C3.29105 8.86305 3.35305 9.20205 3.62205 9.85205L3.72405 10.092C3.82205 10.322 3.93105 10.58 4.01805 10.825C4.14105 11.171 4.25005 11.574 4.25005 12C4.25005 12.426 4.14005 12.829 4.01805 13.175C3.93105 13.42 3.82205 13.678 3.72405 13.907L3.62205 14.148C3.35305 14.798 3.29205 15.138 3.38905 15.385C3.42905 15.49 3.47305 15.593 3.51705 15.695C3.62405 15.939 3.90705 16.135 4.55705 16.405L4.80005 16.503C5.03105 16.597 5.29005 16.701 5.52605 16.813C5.85705 16.972 6.21905 17.179 6.52005 17.48C6.82105 17.781 7.02905 18.143 7.18705 18.474C7.29905 18.709 7.40305 18.969 7.49705 19.2L7.59505 19.443C7.86505 20.093 8.06105 20.376 8.30505 20.483C8.40705 20.527 8.51105 20.57 8.61505 20.611C8.86305 20.709 9.20205 20.647 9.85205 20.378L10.092 20.276C10.322 20.178 10.58 20.069 10.825 19.982C11.171 19.859 11.574 19.75 12 19.75C12.426 19.75 12.829 19.86 13.175 19.982C13.42 20.069 13.678 20.178 13.907 20.276L14.148 20.378C14.798 20.647 15.138 20.708 15.385 20.611C15.49 20.571 15.593 20.527 15.695 20.483C15.939 20.376 16.135 20.093 16.405 19.443L16.504 19.2C16.597 18.969 16.701 18.71 16.814 18.474C16.972 18.143 17.179 17.781 17.48 17.48C17.781 17.179 18.143 16.971 18.474 16.813C18.709 16.701 18.969 16.597 19.2 16.503L19.443 16.405C20.093 16.135 20.376 15.939 20.483 15.695C20.527 15.593 20.57 15.49 20.611 15.385C20.709 15.138 20.647 14.799 20.378 14.148C20.3445 14.0679 20.3105 13.9879 20.276 13.908C20.178 13.678 20.069 13.42 19.982 13.175C19.859 12.829 19.75 12.426 19.75 12C19.75 11.574 19.86 11.171 19.982 10.825C20.069 10.58 20.178 10.322 20.276 10.093L20.378 9.85205C20.647 9.20205 20.708 8.86205 20.611 8.61505C20.5699 8.51094 20.5269 8.40759 20.482 8.30505C20.376 8.06005 20.092 7.86405 19.442 7.59505C19.367 7.56305 19.286 7.53105 19.2 7.49605C18.955 7.40004 18.7129 7.29666 18.474 7.18605C18.143 7.02805 17.781 6.82105 17.48 6.52005C17.179 6.21805 16.971 5.85705 16.813 5.52505C16.7024 5.28656 16.599 5.04479 16.503 4.80005L16.405 4.55705C16.135 3.90705 15.939 3.62405 15.695 3.51705C15.5925 3.47249 15.4892 3.42982 15.385 3.38905C15.138 3.29105 14.799 3.35305 14.148 3.62205L13.908 3.72405C13.678 3.82205 13.42 3.93105 13.175 4.01805ZM13.575 2.23605C14.17 1.99005 15.055 1.64705 15.935 1.99305C16.055 2.04105 16.176 2.09105 16.295 2.14305C17.161 2.52005 17.544 3.38805 17.791 3.98305L17.914 4.28505C18 4.49805 18.077 4.68905 18.167 4.88005C18.294 5.14505 18.414 5.33205 18.541 5.45905C18.668 5.58605 18.855 5.70605 19.121 5.83205C19.311 5.92305 19.501 6.00005 19.715 6.08605L20.017 6.20905C20.612 6.45605 21.48 6.83905 21.857 7.70505C21.909 7.82405 21.959 7.94505 22.007 8.06505C22.353 8.94505 22.01 9.83005 21.764 10.425C21.72 10.532 21.678 10.631 21.637 10.726C21.547 10.938 21.467 11.127 21.396 11.326C21.298 11.604 21.25 11.821 21.25 12C21.25 12.18 21.298 12.396 21.396 12.674C21.466 12.873 21.547 13.062 21.637 13.274L21.764 13.574C22.01 14.17 22.353 15.055 22.007 15.934C21.9592 16.0549 21.9092 16.175 21.857 16.294C21.48 17.16 20.612 17.544 20.017 17.79C19.9166 17.8316 19.8159 17.8726 19.715 17.913C19.502 17.999 19.311 18.076 19.12 18.167C18.855 18.294 18.668 18.414 18.54 18.54C18.414 18.667 18.294 18.854 18.167 19.12C18.077 19.31 18 19.502 17.914 19.715L17.791 20.017C17.544 20.612 17.161 21.48 16.295 21.857C16.175 21.909 16.055 21.959 15.935 22.007C15.055 22.353 14.17 22.01 13.575 21.764C13.4748 21.7223 13.3748 21.6799 13.275 21.637C13.062 21.547 12.873 21.467 12.674 21.396C12.397 21.298 12.18 21.25 12 21.25C11.82 21.25 11.604 21.297 11.326 21.396C11.127 21.466 10.938 21.547 10.726 21.637L10.426 21.764C9.83005 22.01 8.94505 22.354 8.06605 22.007C7.94515 21.9592 7.82513 21.9092 7.70605 21.857C6.84005 21.48 6.45605 20.612 6.20905 20.017C6.16505 19.911 6.12505 19.811 6.08705 19.715C6.00105 19.502 5.92405 19.311 5.83305 19.12C5.70605 18.855 5.58605 18.668 5.45905 18.54C5.33205 18.412 5.14605 18.294 4.87905 18.167C4.68905 18.077 4.49905 17.999 4.28505 17.913C4.18905 17.875 4.08905 17.835 3.98305 17.791C3.38805 17.544 2.52005 17.161 2.14305 16.295C2.09105 16.175 2.04105 16.055 1.99305 15.935C1.64705 15.055 1.99005 14.17 2.23605 13.575C2.28005 13.468 2.32305 13.369 2.36305 13.275C2.45305 13.062 2.53305 12.873 2.60405 12.674C2.70305 12.396 2.75005 12.179 2.75005 12C2.75005 11.82 2.70305 11.604 2.60405 11.326C2.53405 11.127 2.45405 10.938 2.36305 10.726L2.23605 10.426C1.99005 9.83005 1.64705 8.94505 1.99305 8.06605C2.04105 7.94405 2.09105 7.82405 2.14305 7.70505C2.52005 6.83905 3.38805 6.45505 3.98305 6.20905L4.28505 6.08605C4.49805 6.00005 4.69005 5.92305 4.88005 5.83305C5.14605 5.70605 5.33205 5.58605 5.46005 5.45905C5.58805 5.33205 5.70605 5.14505 5.83305 4.87905C5.92305 4.68905 6.00105 4.49905 6.08705 4.28505C6.12505 4.18905 6.16505 4.08905 6.20905 3.98305C6.45605 3.38805 6.83905 2.52005 7.70505 2.14305C7.82505 2.09105 7.94505 2.04105 8.06505 1.99305C8.94505 1.64705 9.83005 1.99005 10.425 2.23605C10.532 2.28005 10.631 2.32305 10.726 2.36305C10.938 2.45305 11.127 2.53305 11.326 2.60405C11.604 2.70305 11.821 2.75005 12 2.75005C12.18 2.75005 12.397 2.70305 12.674 2.60405C12.873 2.53405 13.062 2.45405 13.274 2.36305L13.575 2.23605Z" fill="#FB5252"/>
<path d="M10.358 10.3581C10.2848 10.4328 10.1974 10.4923 10.101 10.5331C10.0046 10.5739 9.90105 10.5952 9.79637 10.5957C9.69169 10.5962 9.58794 10.576 9.49113 10.5362C9.39432 10.4964 9.30636 10.4378 9.23234 10.3637C9.15832 10.2897 9.09971 10.2018 9.05989 10.105C9.02008 10.0081 8.99985 9.9044 9.00038 9.79972C9.00091 9.69504 9.02218 9.5915 9.06297 9.4951C9.10376 9.39869 9.16326 9.31133 9.23802 9.23806C9.38706 9.09201 9.5877 9.01067 9.79637 9.01173C10.005 9.01278 10.2048 9.09614 10.3524 9.24369C10.4999 9.39124 10.5833 9.59106 10.5844 9.79972C10.5854 10.0084 10.5041 10.209 10.358 10.3581ZM14.761 14.7611C14.6878 14.8358 14.6004 14.8953 14.504 14.9361C14.4076 14.9769 14.304 14.9982 14.1994 14.9987C14.0947 14.9992 13.9909 14.979 13.8941 14.9392C13.7973 14.8994 13.7094 14.8408 13.6353 14.7667C13.5613 14.6927 13.5027 14.6048 13.4629 14.508C13.4231 14.4111 13.4028 14.3074 13.4034 14.2027C13.4039 14.098 13.4252 13.9945 13.466 13.8981C13.5068 13.8017 13.5663 13.7143 13.641 13.6411C13.7901 13.495 13.9907 13.4137 14.1994 13.4147C14.408 13.4158 14.6078 13.4991 14.7554 13.6467C14.9029 13.7942 14.9863 13.9941 14.9874 14.2027C14.9884 14.4114 14.9071 14.612 14.761 14.7611Z" fill="#FB5252"/>
<path fill-rule="evenodd" clip-rule="evenodd" d="M14.77 9.23006C14.8399 9.29973 14.8953 9.38249 14.9331 9.47361C14.9709 9.56473 14.9904 9.66241 14.9904 9.76106C14.9904 9.85971 14.9709 9.95739 14.9331 10.0485C14.8953 10.1396 14.8399 10.2224 14.77 10.2921L10.292 14.7691C10.2229 14.8407 10.1401 14.8979 10.0487 14.9372C9.95718 14.9766 9.85877 14.9973 9.75919 14.9982C9.6596 14.9992 9.56084 14.9802 9.46865 14.9426C9.37646 14.9049 9.29269 14.8492 9.22224 14.7789C9.15179 14.7085 9.09606 14.6248 9.0583 14.5326C9.02055 14.4405 9.00153 14.3417 9.00234 14.2421C9.00316 14.1425 9.02381 14.0441 9.06307 13.9526C9.10233 13.8611 9.15943 13.7783 9.23103 13.7091L13.709 9.23106C13.8497 9.09061 14.0403 9.01172 14.239 9.01172C14.4378 9.01172 14.6284 9.09061 14.769 9.23106L14.77 9.23006Z" fill="#FB5252"/>
</svg>
