<svg width="24" height="24" viewBox="0 0 24 24" fill="none" xmlns="http://www.w3.org/2000/svg">
<path d="M6.28982 8.29002L11.2898 3.29002C11.3849 3.19898 11.4971 3.12761 11.6198 3.08002C11.8633 2.98 12.1364 2.98 12.3798 3.08002C12.5026 3.12761 12.6147 3.19898 12.7098 3.29002L17.7098 8.29002C17.8981 8.47832 18.0039 8.73372 18.0039 9.00002C18.0039 9.26632 17.8981 9.52172 17.7098 9.71002C17.5215 9.89832 17.2661 10.0041 16.9998 10.0041C16.7335 10.0041 16.4781 9.89832 16.2898 9.71002L12.9998 6.41002L12.9998 20C12.9998 20.2652 12.8945 20.5196 12.7069 20.7071C12.5194 20.8947 12.265 21 11.9998 21C11.7346 21 11.4802 20.8947 11.2927 20.7071C11.1052 20.5196 10.9998 20.2652 10.9998 20L10.9998 6.41002L7.70981 9.71002C7.61685 9.80375 7.50625 9.87814 7.38439 9.92891C7.26253 9.97968 7.13183 10.0058 6.99981 10.0058C6.8678 10.0058 6.7371 9.97968 6.61524 9.92891C6.49338 9.87814 6.38278 9.80375 6.28982 9.71002C6.19609 9.61706 6.12169 9.50645 6.07092 9.3846C6.02015 9.26274 5.99402 9.13203 5.99402 9.00002C5.99402 8.86801 6.02015 8.7373 6.07092 8.61544C6.12169 8.49358 6.19609 8.38298 6.28982 8.29002Z" fill="#333333"/>
</svg>
