<svg width="20" height="20" viewBox="0 0 20 20" fill="none" xmlns="http://www.w3.org/2000/svg">
<path d="M10.3958 15.3704C10.73 15.3704 11.0642 15.2516 11.3337 15.0143C12.9398 13.5996 16.0455 10.458 16.0455 7.31637C16.0455 4.19611 13.5161 1.66666 10.3958 1.66666C7.27554 1.66666 4.74609 4.19611 4.74609 7.31637C4.74609 10.458 7.85181 13.5996 9.45792 15.0143C9.72745 15.2517 10.0616 15.3704 10.3958 15.3704Z" stroke="#333333" stroke-width="1.5" stroke-miterlimit="10" stroke-linecap="round" stroke-linejoin="round"/>
<path d="M15.0941 14.6331C16.5445 15.0211 17.4578 15.586 17.4578 16.2148C17.4578 17.3849 14.296 18.3334 10.3956 18.3334C6.49533 18.3334 3.3335 17.3849 3.3335 16.2148C3.3335 15.586 4.24677 15.0211 5.69716 14.6331" stroke="#333333" stroke-width="1.5" stroke-miterlimit="10" stroke-linecap="round" stroke-linejoin="round"/>
<path d="M10.3955 9.43501C11.5656 9.43501 12.5141 8.48646 12.5141 7.31637C12.5141 6.14627 11.5656 5.19772 10.3955 5.19772C9.2254 5.19772 8.27686 6.14627 8.27686 7.31637C8.27686 8.48646 9.2254 9.43501 10.3955 9.43501Z" stroke="#333333" stroke-width="1.5" stroke-miterlimit="10" stroke-linecap="round" stroke-linejoin="round"/>
</svg>
