<svg xmlns="http://www.w3.org/2000/svg" width="14" height="14" viewBox="0 0 14 14" fill="none">
    <path d="M7.74109 2.1758L8.90776 4.50914C8.9639 4.62101 9.04628 4.71763 9.14785 4.79077C9.24943 4.8639 9.36719 4.91138 9.49109 4.92914L12.0578 5.29664C12.2009 5.31673 12.3355 5.3767 12.4461 5.4697C12.5568 5.56269 12.639 5.68494 12.6834 5.82248C12.7279 5.96002 12.7327 6.10728 12.6973 6.24743C12.662 6.38757 12.5879 6.51494 12.4836 6.61497L10.6344 8.39997C10.5431 8.48596 10.475 8.59356 10.4362 8.71284C10.3975 8.83213 10.3894 8.95925 10.4128 9.08247L10.8503 11.6083C10.8737 11.7501 10.8573 11.8957 10.8029 12.0287C10.7484 12.1618 10.6581 12.2771 10.5419 12.3618C10.4258 12.4465 10.2884 12.4972 10.145 12.5084C10.0017 12.5195 9.85812 12.4907 9.73026 12.425L7.39693 11.2233C7.28705 11.166 7.16499 11.1362 7.04109 11.1362C6.9172 11.1362 6.79513 11.166 6.68526 11.2233L4.35193 12.425C4.22406 12.4907 4.08046 12.5195 3.93714 12.5084C3.79382 12.4972 3.65642 12.4465 3.54026 12.3618C3.42411 12.2771 3.33377 12.1618 3.27932 12.0287C3.22488 11.8957 3.20847 11.7501 3.23193 11.6083L3.66943 9.08247C3.70146 8.96091 3.70277 8.8333 3.67324 8.71111C3.64371 8.58892 3.58427 8.47598 3.50026 8.38247L1.63359 6.59747C1.52926 6.49744 1.45519 6.37007 1.41986 6.22993C1.38452 6.08978 1.38934 5.94252 1.43376 5.80498C1.47819 5.66744 1.56042 5.54519 1.67107 5.4522C1.78171 5.3592 1.9163 5.29923 2.05943 5.27914L4.62609 4.91164C4.74999 4.89388 4.86776 4.8464 4.96933 4.77327C5.07091 4.70013 5.15329 4.60351 5.20943 4.49164L6.37609 2.1583C6.44281 2.03442 6.54219 1.9312 6.66345 1.85983C6.78471 1.78846 6.92321 1.75168 7.0639 1.75348C7.20459 1.75528 7.34209 1.7956 7.46148 1.87006C7.58087 1.94451 7.67757 2.05025 7.74109 2.1758Z" fill="#BABAC0">
    </path>
</svg>
