<svg width="20" height="20" viewBox="0 0 20 20" fill="none" xmlns="http://www.w3.org/2000/svg">
<path d="M18.3512 13.1317C15.9847 11.6402 13.2603 10.8447 10.4762 10.8447H10.3767C7.57275 10.8447 4.84832 11.6402 2.50173 13.1317C1.9648 13.4498 1.6665 14.0067 1.6665 14.6231V16.393C1.6665 17.3675 2.44207 18.1629 3.4165 18.1629H17.4165C18.371 18.1629 19.1665 17.3675 19.1665 16.393V14.6231C19.1665 14.0067 18.8682 13.4498 18.3512 13.1317ZM17.5756 16.393C17.5756 16.4925 17.496 16.572 17.4165 16.572H3.4165C3.33696 16.572 3.25741 16.4925 3.25741 16.393V14.6231C3.25741 14.5635 3.29719 14.5038 3.33696 14.464C5.44491 13.1317 7.87105 12.4356 10.3568 12.4356H10.4563C12.9421 12.4356 15.3881 13.1317 17.4762 14.4839C17.5159 14.5237 17.5557 14.5635 17.5557 14.643V16.393H17.5756Z" fill="#FBC100"/>
<path d="M6.83691 4.64015V6.62879C6.83691 8.59754 8.44771 10.2083 10.4165 10.2083C12.3852 10.2083 13.996 8.59754 13.996 6.62879V4.64015C13.996 2.6714 12.3852 1.06061 10.4165 1.06061C8.44771 1.06061 6.83691 2.6714 6.83691 4.64015ZM12.4051 4.64015V6.62879C12.4051 7.72254 11.5102 8.61743 10.4165 8.61743C9.32271 8.61743 8.42782 7.72254 8.42782 6.62879V4.64015C8.42782 3.5464 9.32271 2.65152 10.4165 2.65152C11.5102 2.65152 12.4051 3.5464 12.4051 4.64015Z" fill="#FBC100"/>
</svg>
